<svg xmlns="http://www.w3.org/2000/svg" width="89.999" height="89.999" viewBox="0 0 89.999 89.999">
  <defs>
    <style>
      .cls-1 {
        fill: #707070;
        stroke: #707070;
      }
    </style>
  </defs>
  <path id="前面オブジェクトで型抜き_6" data-name="前面オブジェクトで型抜き 6" class="cls-1" d="M85,89.5H5A4.505,4.505,0,0,1,.5,85V5A4.505,4.505,0,0,1,5,.5H85A4.505,4.505,0,0,1,89.5,5V85A4.505,4.505,0,0,1,85,89.5Zm-66.5-70v58h44V39.49L50.322,27.3,42.53,19.5Zm4-8v4.769H45.657l7.82,7.825L65.7,36.322V73.5l4.8,0V32.869L57.215,19.838l-8.5-8.338Z" transform="translate(0 0)"/>
</svg>
