<svg xmlns="http://www.w3.org/2000/svg" width="90" height="90" viewBox="0 0 90 90">
  <defs>
    <style>
      .cls-1, .cls-3 {
        fill: #707070;
      }

      .cls-2, .cls-3 {
        stroke: none;
      }
    </style>
  </defs>
  <g id="前面オブジェクトで型抜き_5" data-name="前面オブジェクトで型抜き 5" class="cls-1">
    <path class="cls-2" d="M 84.99960327148438 89.5 L 5.000400066375732 89.5 C 2.51887059211731 89.5 0.5 87.48113250732422 0.5 84.99960327148438 L 0.5 5.000400066375732 C 0.5 2.51887059211731 2.51887059211731 0.5 5.000400066375732 0.5 L 84.99960327148438 0.5 C 87.48113250732422 0.5 89.5 2.51887059211731 89.5 5.000400066375732 L 89.5 84.99960327148438 C 89.5 87.48113250732422 87.48113250732422 89.5 84.99960327148438 89.5 Z M 11.49970626831055 65.49970245361328 L 11.49970626831055 65.99970245361328 L 11.49970626831055 74.99970245361328 L 11.49970626831055 75.49970245361328 L 11.99970626831055 75.49970245361328 L 78.00032043457031 75.49970245361328 L 78.50032043457031 75.49970245361328 L 78.50032043457031 74.99970245361328 L 78.50032043457031 65.99970245361328 L 78.50032043457031 65.49970245361328 L 78.00032043457031 65.49970245361328 L 11.99970626831055 65.49970245361328 L 11.49970626831055 65.49970245361328 Z M 10.21005916595459 40.49950408935547 L 11.74055290222168 41.42710494995117 L 44.74084854125977 61.42779922485352 L 45 61.58485794067383 L 45.25915145874023 61.42779922485352 L 78.25946807861328 41.42710494995117 L 79.78996276855469 40.49950408935547 L 78.00032043457031 40.49950408935547 L 59.50040054321289 40.49950408935547 L 59.50040054321289 12.99960041046143 L 59.50040054321289 12.49960041046143 L 59.00040054321289 12.49960041046143 L 30.99959945678711 12.49960041046143 L 30.49959945678711 12.49960041046143 L 30.49959945678711 12.99960041046143 L 30.49959945678711 40.49950408935547 L 11.99970626831055 40.49950408935547 L 10.21005916595459 40.49950408935547 Z"/>
    <path class="cls-3" d="M 84.99960327148438 89 C 87.20542144775391 89 89 87.20542144775391 89 84.99960327148438 L 89 5.000400066375732 C 89 2.794574975967407 87.20542144775391 1 84.99960327148438 1 L 5.000400066375732 1 C 2.794574975967407 1 1 2.794574975967407 1 5.000400066375732 L 1 84.99960327148438 C 1 87.20542144775391 2.794574975967407 89 5.000400066375732 89 L 84.99960327148438 89 M 10.99969959259033 64.99970245361328 L 11.99969959259033 64.99970245361328 L 78.00031280517578 64.99970245361328 L 79.00031280517578 64.99970245361328 L 79.00031280517578 65.99970245361328 L 79.00031280517578 74.99970245361328 L 79.00031280517578 75.99970245361328 L 78.00031280517578 75.99970245361328 L 11.99969959259033 75.99970245361328 L 10.99969959259033 75.99970245361328 L 10.99969959259033 74.99970245361328 L 10.99969959259033 65.99970245361328 L 10.99969959259033 64.99970245361328 M 8.42039966583252 39.9995002746582 L 11.99969959259033 39.9995002746582 L 29.99959945678711 39.9995002746582 L 29.99959945678711 12.99960041046143 L 29.99959945678711 11.99960041046143 L 30.99959945678711 11.99960041046143 L 59.00040054321289 11.99960041046143 L 60.00040054321289 11.99960041046143 L 60.00040054321289 12.99960041046143 L 60.00040054321289 39.9995002746582 L 78.00031280517578 39.9995002746582 L 81.57961273193359 39.9995002746582 L 78.51862335205078 41.85468673706055 L 45.51831436157227 61.85538864135742 L 45 62.16952514648438 L 44.48168563842773 61.85538864135742 L 11.4813871383667 41.85468673706055 L 8.42039966583252 39.9995002746582 M 84.99960327148438 90 L 5.000400066375732 90 C 2.243175029754639 90 0 87.7568359375 0 84.99960327148438 L 0 5.000400066375732 C 0 2.243175029754639 2.243175029754639 0 5.000400066375732 0 L 84.99960327148438 0 C 87.7568359375 0 90 2.243175029754639 90 5.000400066375732 L 90 84.99960327148438 C 90 87.7568359375 87.7568359375 90 84.99960327148438 90 Z M 11.99969959259033 65.99970245361328 L 11.99969959259033 74.99970245361328 L 78.00031280517578 74.99970245361328 L 78.00031280517578 65.99970245361328 L 11.99969959259033 65.99970245361328 Z M 11.99969959259033 40.9995002746582 L 45 61.00019836425781 L 78.00031280517578 40.9995002746582 L 59.00040054321289 40.9995002746582 L 59.00040054321289 12.99960041046143 L 30.99959945678711 12.99960041046143 L 30.99959945678711 40.9995002746582 L 11.99969959259033 40.9995002746582 Z"/>
  </g>
</svg>
